<svg width="24" height="24" viewBox="0 0 24 24" fill="none" xmlns="http://www.w3.org/2000/svg">
<rect width="24" height="24" fill="#CCCFD7"/>
<g id="Landing Page V1">
<path d="M-1061 -9217C-1061 -9218.1 -1060.1 -9219 -1059 -9219H3066C3067.1 -9219 3068 -9218.1 3068 -9217V4017C3068 4018.1 3067.1 4019 3066 4019H-1059C-1060.1 4019 -1061 4018.1 -1061 4017V-9217Z" fill="#E9E9E9"/>
<path d="M-1059 -9218H3066V-9220H-1059V-9218ZM3067 -9217V4017H3069V-9217H3067ZM3066 4018H-1059V4020H3066V4018ZM-1060 4017V-9217H-1062V4017H-1060ZM-1059 4018C-1059.55 4018 -1060 4017.55 -1060 4017H-1062C-1062 4018.66 -1060.66 4020 -1059 4020V4018ZM3067 4017C3067 4017.55 3066.55 4018 3066 4018V4020C3067.66 4020 3069 4018.66 3069 4017H3067ZM3066 -9218C3066.55 -9218 3067 -9217.55 3067 -9217H3069C3069 -9218.66 3067.66 -9220 3066 -9220V-9218ZM-1059 -9220C-1060.66 -9220 -1062 -9218.66 -1062 -9217H-1060C-1060 -9217.55 -1059.55 -9218 -1059 -9218V-9220Z" fill="black" fill-opacity="0.1"/>
<g id="Landing-Page-V1__Desktop" clip-path="url(#clip0_0_1)">
<rect width="1920" height="8907" transform="translate(-288 -8691)" fill="white"/>
<g id="Footer_V1">
<rect width="1920" height="614" transform="translate(-288 -398)" fill="#15B2F5"/>
<g id="Logo + Description">
<g id="Media Socials">
<g id="instagram">
<path id="Vector" d="M17 2H7C4.23858 2 2 4.23858 2 7V17C2 19.7614 4.23858 22 7 22H17C19.7614 22 22 19.7614 22 17V7C22 4.23858 19.7614 2 17 2Z" fill="white"/>
<path id="Vector_2" d="M15.9997 11.3703C16.1231 12.2025 15.981 13.0525 15.5935 13.7993C15.206 14.5461 14.5929 15.1517 13.8413 15.53C13.0898 15.9082 12.2382 16.0399 11.4075 15.9062C10.5768 15.7726 9.80947 15.3804 9.21455 14.7855C8.61962 14.1905 8.22744 13.4232 8.09377 12.5925C7.96011 11.7619 8.09177 10.9102 8.47003 10.1587C8.84829 9.40716 9.45389 8.79404 10.2007 8.40654C10.9475 8.01904 11.7975 7.87689 12.6297 8.0003C13.4786 8.12619 14.2646 8.52176 14.8714 9.12861C15.4782 9.73545 15.8738 10.5214 15.9997 11.3703Z" stroke="#15B2F5" stroke-width="2" stroke-linecap="round" stroke-linejoin="round"/>
<path id="Vector_3" d="M17.5 6.5H17.51" stroke="#15B2F5" stroke-width="2" stroke-linecap="round" stroke-linejoin="round"/>
</g>
</g>
</g>
</g>
</g>
</g>
<defs>
<clipPath id="clip0_0_1">
<rect width="1920" height="8907" fill="white" transform="translate(-288 -8691)"/>
</clipPath>
</defs>
</svg>
